External Loads File
version=1
nRows=85
nColumns=13
Range=5.000000e-03-10 seconds
endheader
time 	forceRightX 	forceRightY 	forceRightZ 	pointRightX 	pointRightY 	pointRightZ 	forceLeftX 	forceLeftY 	forceLeftZ 	pointLeftX 	pointLeftY 	pointLeftZ 		
5.005000 26.213977 -82.129704 -0.000000 0.149897 0.395829 -0.112698 -26.603048 1104.384201 -0.000000 0.416184 0.258068 -0.363607
5.010000 30.997765 -74.366990 -0.000000 0.154397 0.405978 -0.113043 -19.753142 1164.547452 -0.000000 0.411966 0.247708 -0.363583
5.015000 34.311510 -68.370290 -0.000000 0.159459 0.415877 -0.113332 -12.290655 1226.576927 -0.000000 0.407202 0.237649 -0.363515
5.020000 35.839352 -64.240440 -0.000000 0.165132 0.425571 -0.113643 -3.073943 1289.852442 -0.000000 0.401919 0.227935 -0.363461
5.025000 35.381761 -61.935959 -0.000000 0.171273 0.434872 -0.113956 8.189514 1353.426348 -0.000000 0.396033 0.218589 -0.363476
5.030000 32.786832 -61.300235 -0.000000 0.177956 0.443723 -0.114272 21.695709 1415.957954 -0.000000 0.389819 0.209655 -0.363343
5.035000 27.935094 -62.082438 -0.000000 0.185052 0.452194 -0.114672 38.420936 1475.684089 -0.000000 0.383129 0.201215 -0.363242
5.040000 20.914116 -63.908826 -0.000000 0.192736 0.459882 -0.114897 57.374469 1530.570089 -0.000000 0.376005 0.193697 -0.363225
5.045000 11.754443 -66.444276 -0.000000 0.200813 0.467334 -0.115265 82.187346 1578.301698 -0.000000 0.368426 0.186357 -0.363161
5.050000 0.793730 -69.287002 -0.000000 0.209591 0.474168 -0.115207 111.363348 1616.827355 -0.000000 0.360520 0.179667 -0.363050
5.055000 -11.438667 -72.150368 -0.000000 0.217934 0.480459 -0.116189 140.155820 1644.714839 -0.000000 0.352308 0.173510 -0.363001
5.060000 -24.799820 -74.795138 -0.000000 0.227151 0.486013 -0.116535 173.017865 1660.185405 -0.000000 0.343813 0.167907 -0.362968
5.065000 -38.907368 -76.955666 -0.000000 0.237064 0.491108 -0.116545 208.446773 1662.089032 -0.000000 0.335120 0.162983 -0.362960
5.070000 -53.083768 -78.560902 -0.000000 0.246178 0.495510 -0.117273 238.441312 1650.515240 -0.000000 0.326208 0.158689 -0.362995
5.075000 -67.346964 -79.183649 -0.000000 0.256155 0.499341 -0.117582 269.423940 1624.023245 -0.000000 0.317206 0.154903 -0.363041
5.080000 -81.213221 -78.688557 -0.000000 0.266195 0.502620 -0.117955 296.916528 1582.901637 -0.000000 0.308055 0.151785 -0.363140
5.085000 -94.258753 -76.960530 -0.000000 0.276101 0.505199 -0.118343 318.766430 1527.533125 -0.000000 0.298872 0.149366 -0.363305
5.090000 -106.169831 -73.799370 -0.000000 0.286128 0.507150 -0.118695 335.685742 1458.021823 -0.000000 0.289667 0.147741 -0.363372
5.095000 -116.567816 -69.216930 -0.000000 0.296005 0.508527 -0.119146 346.375305 1375.151186 -0.000000 0.280422 0.146772 -0.363468
5.100000 -125.220968 -63.218762 -0.000000 0.306037 0.509315 -0.119325 351.101953 1279.657267 -0.000000 0.271327 0.146519 -0.363601
5.105000 -131.907545 -55.982047 -0.000000 0.315969 0.509271 -0.119599 349.052072 1172.928553 -0.000000 0.262383 0.146930 -0.363699
5.110000 -136.511409 -47.640964 -0.000000 0.325714 0.508625 -0.119882 340.376928 1056.634231 -0.000000 0.253544 0.148126 -0.363705
5.115000 -138.950698 -38.383527 -0.000000 0.335061 0.507229 -0.119863 324.947326 933.143279 -0.000000 0.244976 0.150509 -0.363722
5.120000 -139.310493 -28.102442 -0.000000 0.344188 0.505198 -0.119880 304.684154 804.582385 -0.000000 0.236175 0.153164 -0.362863
5.125000 -137.717443 -17.245944 -0.000000 0.353011 0.502723 -0.119846 277.992130 674.587140 -0.000000 0.228158 0.156438 -0.362599
5.130000 -134.631055 -5.561059 -0.000000 0.361300 0.499466 -0.119946 247.225118 545.492525 -0.000000 0.220545 0.161082 -0.362364
5.135000 -130.544617 7.139922 -0.000000 0.369463 0.495581 -0.119704 213.549413 420.197978 -0.000000 0.213374 0.166427 -0.362129
5.140000 -126.020682 21.063174 -0.000000 0.377051 0.491022 -0.119493 177.930176 301.778206 -0.000000 0.206443 0.172406 -0.361587
5.145000 -121.746225 36.541721 -0.000000 0.384294 0.485937 -0.119469 141.641438 192.971865 -0.000000 0.199991 0.178263 -0.361001
5.150000 -118.265708 54.580617 -0.000000 0.391076 0.479673 -0.119314 106.744946 95.334907 -0.000000 0.193656 0.184808 -0.360460
5.155000 -116.062130 75.855464 -0.000000 0.397513 0.472969 -0.118934 74.050901 10.320093 -0.000000 0.187547 0.191976 -0.360164
5.160000 -115.472493 101.121066 -0.000000 0.403250 0.465543 -0.118592 44.402851 -61.494159 -0.000000 0.181633 0.199458 -0.359806
5.165000 -116.685308 131.117610 -0.000000 0.408353 0.457414 -0.118256 18.415552 -120.171183 -0.000000 0.175945 0.206878 -0.359475
5.170000 -119.446966 166.690360 -0.000000 0.412973 0.448451 -0.117896 -3.915087 -166.112514 -0.000000 0.170737 0.214883 -0.360044
5.175000 -123.716299 208.094384 -0.000000 0.417081 0.439313 -0.117674 -22.471382 -199.748534 -0.000000 0.165906 0.223247 -0.360005
5.180000 -129.027400 255.444281 -0.000000 0.420645 0.429612 -0.117403 -37.403499 -221.559034 -0.000000 0.161439 0.231794 -0.359892
5.185000 -135.056399 308.260576 -0.000000 0.423783 0.419740 -0.117228 -48.519753 -232.179910 -0.000000 0.157480 0.240578 -0.359777
5.190000 -141.092948 365.823758 -0.000000 0.426459 0.409413 -0.117366 -55.777301 -232.517745 -0.000000 0.153861 0.249414 -0.359681
5.195000 -146.671165 427.048192 -0.000000 0.428538 0.398770 -0.117084 -58.881002 -223.959731 -0.000000 0.150711 0.258459 -0.359665
5.200000 -151.260727 490.859051 -0.000000 0.430093 0.387925 -0.116707 -57.701422 -208.349911 -0.000000 0.148085 0.267792 -0.359821
5.205000 -154.400463 556.314402 -0.000000 0.430970 0.376729 -0.116291 -52.310164 -187.920207 -0.000000 0.145915 0.277295 -0.359968
5.210000 -155.207812 622.814541 -0.000000 0.431773 0.365370 -0.116596 -43.196936 -165.039661 -0.000000 0.144177 0.287197 -0.360155
5.215000 -154.678511 689.511991 -0.000000 0.432154 0.354286 -0.116972 -30.671466 -142.095132 -0.000000 0.143006 0.297461 -0.360431
5.220000 -151.815282 756.208245 -0.000000 0.431994 0.343070 -0.117468 -15.911795 -120.934146 -0.000000 0.142287 0.308014 -0.360670
5.225000 -145.659511 822.597086 -0.000000 0.431456 0.331508 -0.117578 -0.079444 -102.908575 -0.000000 0.142162 0.318761 -0.360906
5.230000 -136.180183 888.032898 -0.000000 0.430314 0.319876 -0.117509 15.838534 -88.736928 -0.000000 0.142658 0.329704 -0.361259
5.235000 -122.305172 951.869154 -0.000000 0.428560 0.308268 -0.116805 30.878166 -78.536222 -0.000000 0.143823 0.340984 -0.361605
5.240000 -107.209677 1012.822396 -0.000000 0.426401 0.297022 -0.116617 44.643852 -71.857926 -0.000000 0.145567 0.351845 -0.361980
5.245000 -88.126510 1070.396172 -0.000000 0.423813 0.285764 -0.116461 56.472974 -68.234847 -0.000000 0.147898 0.362678 -0.362111
5.250000 -65.609209 1123.693759 -0.000000 0.420801 0.274719 -0.116146 66.175296 -67.063476 -0.000000 0.150887 0.373486 -0.362434
5.255000 -41.822586 1171.879030 -0.000000 0.417490 0.264096 -0.116294 73.771837 -67.675004 -0.000000 0.154385 0.384017 -0.362661
5.260000 -15.017132 1214.461192 -0.000000 0.413314 0.253812 -0.115919 79.155749 -69.749126 -0.000000 0.158557 0.394344 -0.362839
5.265000 12.470328 1250.950926 -0.000000 0.408901 0.243954 -0.116386 82.505758 -72.871527 -0.000000 0.163192 0.404397 -0.362934
5.270000 41.849009 1281.061170 -0.000000 0.403644 0.234467 -0.116176 83.757872 -76.978337 -0.000000 0.168298 0.414141 -0.363196
5.275000 72.185905 1304.600039 -0.000000 0.397895 0.225526 -0.116015 82.922502 -81.858297 -0.000000 0.173850 0.423836 -0.363211
5.280000 101.902991 1321.567662 -0.000000 0.391798 0.217071 -0.115919 80.075971 -87.133081 -0.000000 0.179993 0.433041 -0.363262
5.285000 130.998993 1331.968161 -0.000000 0.385225 0.208892 -0.115809 75.287366 -92.349264 -0.000000 0.186599 0.441614 -0.363275
5.290000 159.741294 1335.786241 -0.000000 0.378281 0.201234 -0.115618 68.730629 -96.892870 -0.000000 0.193836 0.449912 -0.362182
5.295000 184.435308 1333.546454 -0.000000 0.370982 0.194125 -0.115483 61.005226 -99.862827 -0.000000 0.200830 0.457824 -0.362258
5.300000 208.040454 1324.978278 -0.000000 0.363283 0.187579 -0.115376 52.303710 -100.726812 -0.000000 0.208593 0.465087 -0.362208
5.305000 231.722312 1309.841637 -0.000000 0.355430 0.181679 -0.115285 42.938042 -98.924795 -0.000000 0.217612 0.471781 -0.363735
5.310000 248.733975 1289.299612 -0.000000 0.347258 0.176380 -0.115233 33.772628 -93.819457 -0.000000 0.225915 0.477863 -0.363175
5.315000 262.338703 1262.828878 -0.000000 0.338926 0.171649 -0.115159 24.823399 -85.368499 -0.000000 0.234506 0.483184 -0.363238
5.320000 272.989853 1230.295512 -0.000000 0.330332 0.167527 -0.114790 16.245078 -73.679001 -0.000000 0.243253 0.488123 -0.363255
5.325000 280.915646 1191.613766 -0.000000 0.321763 0.164032 -0.114653 8.146170 -59.148366 -0.000000 0.252610 0.492081 -0.363299
5.330000 286.184752 1146.770441 -0.000000 0.313068 0.161011 -0.114423 0.570888 -42.476158 -0.000000 0.262237 0.495235 -0.363564
5.335000 288.643898 1095.825695 -0.000000 0.304189 0.158620 -0.114263 -6.525147 -24.641202 -0.000000 0.271920 0.497703 -0.363592
5.340000 288.878153 1038.642084 -0.000000 0.295100 0.156958 -0.114059 -13.326477 -6.782858 -0.000000 0.281673 0.499222 -0.363583
5.345000 287.270550 975.154081 -0.000000 0.285915 0.155922 -0.113831 -20.139718 10.054844 -0.000000 0.291587 0.500305 -0.363675
5.350000 282.992019 905.814233 -0.000000 0.276427 0.155787 -0.113539 -27.402289 25.176582 -0.000000 0.301068 0.500653 -0.364358
5.355000 276.167284 831.088269 -0.000000 0.267186 0.156328 -0.113428 -35.538023 38.391583 -0.000000 0.310572 0.499945 -0.364537
5.360000 266.946080 751.694022 -0.000000 0.257878 0.157628 -0.113190 -44.696817 49.880355 -0.000000 0.319903 0.499444 -0.364747
5.365000 255.691380 668.465457 -0.000000 0.248689 0.159759 -0.113096 -54.572208 59.962659 -0.000000 0.329198 0.498085 -0.364378
5.370000 241.849391 582.736913 -0.000000 0.239623 0.162758 -0.112876 -64.624077 68.898345 -0.000000 0.338049 0.496133 -0.364591
5.375000 226.141345 495.442947 -0.000000 0.230532 0.166349 -0.112951 -74.225515 77.171117 -0.000000 0.346609 0.493423 -0.364727
5.380000 208.928708 407.574408 -0.000000 0.221782 0.170815 -0.112979 -82.960963 85.529035 -0.000000 0.354955 0.488985 -0.364949
5.385000 188.699233 321.070563 -0.000000 0.213324 0.175939 -0.113055 -91.057358 94.486293 -0.000000 0.362869 0.486019 -0.365095
5.390000 167.606001 235.997568 -0.000000 0.204766 0.181694 -0.113519 -98.063769 105.397244 -0.000000 0.370391 0.481126 -0.365377
5.395000 144.962430 154.113409 -0.000000 0.196969 0.188260 -0.113808 -104.367423 118.862004 -0.000000 0.377594 0.475635 -0.365552
5.400000 121.320336 76.816229 -0.000000 0.189665 0.194899 -0.114470 -110.442899 135.405237 -0.000000 0.384109 0.470116 -0.364781
5.405000 97.994824 4.510250 -0.000000 0.182450 0.202053 -0.115394 -115.702078 156.272131 -0.000000 0.390463 0.463061 -0.365063
5.410000 75.243900 -61.209090 -0.000000 0.175574 0.209676 -0.116000 -120.637091 181.542618 -0.000000 0.396285 0.455677 -0.365276
5.415000 53.521262 -119.329205 -0.000000 0.169378 0.217857 -0.116021 -125.057053 211.548946 -0.000000 0.401766 0.447591 -0.365466
5.420000 32.903707 -168.845984 -0.000000 0.163678 0.226533 -0.115875 -128.738735 246.278786 -0.000000 0.406787 0.439032 -0.365546
5.425000 13.129314 -208.926857 -0.000000 0.158492 0.235149 -0.115962 -131.150094 285.516769 -0.000000 0.411692 0.429660 -0.366042
